<mxfile host="app.diagrams.net" modified="2024-03-14T05:06:40.681Z" agent="Mozilla/5.0 (Windows NT 10.0; Win64; x64) AppleWebKit/537.36 (KHTML, like Gecko) Chrome/122.0.0.0 Safari/537.36 Edg/122.0.0.0" etag="VGh__7uZ5mjOp50qgXuB" version="24.0.5" type="github">
  <diagram name="第 1 页" id="KUJz3nnj-1AdjnCrKiRH">
    <mxGraphModel dx="2605" dy="1700" grid="0" gridSize="10" guides="1" tooltips="1" connect="1" arrows="1" fold="1" page="0" pageScale="1" pageWidth="827" pageHeight="1169" math="0" shadow="0">
      <root>
        <mxCell id="0" />
        <mxCell id="1" parent="0" />
        <mxCell id="iRgTtsg-UwyQEltiNukj-6" style="edgeStyle=none;curved=1;rounded=0;orthogonalLoop=1;jettySize=auto;html=1;fontSize=12;startSize=8;endSize=8;" edge="1" parent="1" target="iRgTtsg-UwyQEltiNukj-2">
          <mxGeometry relative="1" as="geometry">
            <mxPoint x="-108" y="81" as="sourcePoint" />
          </mxGeometry>
        </mxCell>
        <mxCell id="iRgTtsg-UwyQEltiNukj-7" style="edgeStyle=orthogonalEdgeStyle;rounded=0;orthogonalLoop=1;jettySize=auto;html=1;entryX=1;entryY=0.5;entryDx=0;entryDy=0;fontSize=12;startSize=8;endSize=8;" edge="1" parent="1" source="iRgTtsg-UwyQEltiNukj-2" target="iRgTtsg-UwyQEltiNukj-15">
          <mxGeometry relative="1" as="geometry">
            <mxPoint x="-48" y="41" as="targetPoint" />
            <Array as="points">
              <mxPoint x="-28" y="176" />
              <mxPoint x="-28" y="42" />
            </Array>
          </mxGeometry>
        </mxCell>
        <mxCell id="iRgTtsg-UwyQEltiNukj-10" value="否" style="edgeLabel;html=1;align=center;verticalAlign=middle;resizable=0;points=[];fontSize=12;" vertex="1" connectable="0" parent="iRgTtsg-UwyQEltiNukj-7">
          <mxGeometry x="0.0847" y="-2" relative="1" as="geometry">
            <mxPoint as="offset" />
          </mxGeometry>
        </mxCell>
        <mxCell id="iRgTtsg-UwyQEltiNukj-11" style="edgeStyle=none;curved=1;rounded=0;orthogonalLoop=1;jettySize=auto;html=1;fontSize=12;startSize=8;endSize=8;" edge="1" parent="1" source="iRgTtsg-UwyQEltiNukj-2" target="iRgTtsg-UwyQEltiNukj-4">
          <mxGeometry relative="1" as="geometry" />
        </mxCell>
        <mxCell id="iRgTtsg-UwyQEltiNukj-18" value="是" style="edgeLabel;html=1;align=center;verticalAlign=middle;resizable=0;points=[];fontSize=12;" vertex="1" connectable="0" parent="iRgTtsg-UwyQEltiNukj-11">
          <mxGeometry x="0.023" y="1" relative="1" as="geometry">
            <mxPoint as="offset" />
          </mxGeometry>
        </mxCell>
        <mxCell id="iRgTtsg-UwyQEltiNukj-2" value="请求是否合法" style="rhombus;whiteSpace=wrap;html=1;" vertex="1" parent="1">
          <mxGeometry x="-158" y="136" width="100" height="80" as="geometry" />
        </mxCell>
        <mxCell id="iRgTtsg-UwyQEltiNukj-12" style="edgeStyle=none;curved=1;rounded=0;orthogonalLoop=1;jettySize=auto;html=1;fontSize=12;startSize=8;endSize=8;" edge="1" parent="1" source="iRgTtsg-UwyQEltiNukj-4" target="iRgTtsg-UwyQEltiNukj-5">
          <mxGeometry relative="1" as="geometry" />
        </mxCell>
        <mxCell id="iRgTtsg-UwyQEltiNukj-4" value="请求通过云服务器防火墙" style="rounded=1;whiteSpace=wrap;html=1;absoluteArcSize=1;arcSize=14;strokeWidth=2;" vertex="1" parent="1">
          <mxGeometry x="-158" y="274" width="100" height="73" as="geometry" />
        </mxCell>
        <mxCell id="iRgTtsg-UwyQEltiNukj-21" style="edgeStyle=none;curved=1;rounded=0;orthogonalLoop=1;jettySize=auto;html=1;entryX=0.5;entryY=0;entryDx=0;entryDy=0;fontSize=12;startSize=8;endSize=8;" edge="1" parent="1" source="iRgTtsg-UwyQEltiNukj-5" target="iRgTtsg-UwyQEltiNukj-19">
          <mxGeometry relative="1" as="geometry" />
        </mxCell>
        <mxCell id="iRgTtsg-UwyQEltiNukj-5" value="Web服务器接受并处理请求" style="rounded=1;whiteSpace=wrap;html=1;absoluteArcSize=1;arcSize=14;strokeWidth=2;" vertex="1" parent="1">
          <mxGeometry x="-158" y="395" width="100" height="73" as="geometry" />
        </mxCell>
        <mxCell id="iRgTtsg-UwyQEltiNukj-15" value="客户端发起HTTP请求，申请获得服务" style="rounded=1;whiteSpace=wrap;html=1;absoluteArcSize=1;arcSize=14;strokeWidth=2;" vertex="1" parent="1">
          <mxGeometry x="-158" y="5" width="100" height="73" as="geometry" />
        </mxCell>
        <mxCell id="iRgTtsg-UwyQEltiNukj-17" style="edgeStyle=none;curved=1;rounded=0;orthogonalLoop=1;jettySize=auto;html=1;entryX=0.5;entryY=0;entryDx=0;entryDy=0;fontSize=12;startSize=8;endSize=8;" edge="1" parent="1" source="iRgTtsg-UwyQEltiNukj-16" target="iRgTtsg-UwyQEltiNukj-15">
          <mxGeometry relative="1" as="geometry" />
        </mxCell>
        <mxCell id="iRgTtsg-UwyQEltiNukj-16" value="开始" style="strokeWidth=2;html=1;shape=mxgraph.flowchart.start_2;whiteSpace=wrap;" vertex="1" parent="1">
          <mxGeometry x="-158" y="-103" width="100" height="65" as="geometry" />
        </mxCell>
        <mxCell id="iRgTtsg-UwyQEltiNukj-24" style="edgeStyle=none;curved=1;rounded=0;orthogonalLoop=1;jettySize=auto;html=1;entryX=0.5;entryY=0;entryDx=0;entryDy=0;fontSize=12;startSize=8;endSize=8;" edge="1" parent="1" source="iRgTtsg-UwyQEltiNukj-19" target="iRgTtsg-UwyQEltiNukj-23">
          <mxGeometry relative="1" as="geometry" />
        </mxCell>
        <mxCell id="iRgTtsg-UwyQEltiNukj-19" value="本程序对请求进行异步解析，并返回请求资源" style="rounded=1;whiteSpace=wrap;html=1;absoluteArcSize=1;arcSize=14;strokeWidth=2;" vertex="1" parent="1">
          <mxGeometry x="-158" y="507" width="100" height="73" as="geometry" />
        </mxCell>
        <mxCell id="iRgTtsg-UwyQEltiNukj-22" value="结束" style="strokeWidth=2;html=1;shape=mxgraph.flowchart.terminator;whiteSpace=wrap;" vertex="1" parent="1">
          <mxGeometry x="-158" y="746" width="100" height="60" as="geometry" />
        </mxCell>
        <mxCell id="iRgTtsg-UwyQEltiNukj-23" value="客户端接收到云服务器返回的资源" style="rounded=1;whiteSpace=wrap;html=1;absoluteArcSize=1;arcSize=14;strokeWidth=2;" vertex="1" parent="1">
          <mxGeometry x="-158" y="618" width="100" height="73" as="geometry" />
        </mxCell>
        <mxCell id="iRgTtsg-UwyQEltiNukj-25" style="edgeStyle=none;curved=1;rounded=0;orthogonalLoop=1;jettySize=auto;html=1;entryX=0.5;entryY=0;entryDx=0;entryDy=0;entryPerimeter=0;fontSize=12;startSize=8;endSize=8;" edge="1" parent="1" source="iRgTtsg-UwyQEltiNukj-23" target="iRgTtsg-UwyQEltiNukj-22">
          <mxGeometry relative="1" as="geometry" />
        </mxCell>
      </root>
    </mxGraphModel>
  </diagram>
</mxfile>
